<?xml version="1.0" encoding="utf-8"?>
<!-- Generator: Adobe Illustrator 26.0.0, SVG Export Plug-In . SVG Version: 6.00 Build 0)  -->
<svg version="1.1" id="Capa_1" xmlns="http://www.w3.org/2000/svg" xmlns:xlink="http://www.w3.org/1999/xlink" x="0px" y="0px"
	 viewBox="0 0 800 800" style="enable-background:new 0 0 800 800;" xml:space="preserve">
<style type="text/css">
	.st0{fill:#1E9B0D;}
</style>
<g>
	<g>
		<path class="st0" d="M430.6,0l-65.1,0.2c-102.7,13-187,56.1-237.4,121.3c-42.5,54.9-59,121.5-49.2,197.9
			c18.8,145.9,140.9,348,237.5,431.3c24.1,20.8,54.9,40.4,68.8,45.7c6.6,2.2,11.4,3.7,16.9,3.7c5.6,0,11-1.6,16.2-4.6
			c62.7-30.6,123.9-95.5,192.5-204.3c47.6-75.5,103.3-175.5,111.8-279.3C736.5,144.5,624.9,25,430.6,0z M428.7,35.1
			c174.4,22.7,271.2,125.1,259,274c-7.9,97.2-64.6,196.9-106.6,263.4c-65,103-121.7,164-178.9,192c-0.3,0.1-0.5,0.2-0.6,0.3
			c-1.5-0.3-3.5-1.1-4.4-1.4c-7.6-2.9-35.9-20.4-57.7-39.2c-90-77.5-208.1-273.2-225.7-409.2c-8.6-66.9,5.5-124.7,42.1-171.9
			c44.6-57.7,120.1-96,211.8-107.7L428.7,35.1z"/>
		<path class="st0" d="M178.1,347.1c-4.2,1.4-6.8,4.2-6.7,9.9c15.7,98.5,82.1,179.7,195.3,158.9C355.9,407.5,292,352.4,178.1,347.1z
			"/>
		<path class="st0" d="M446.1,519.2c111.6-6.4,183.5-70.1,191.9-168.7C524.5,341.9,434.5,402.7,446.1,519.2z"/>
	</g>
</g>
</svg>
